<svg width="349" height="381" viewBox="0 0 349 381" fill="none" xmlns="http://www.w3.org/2000/svg">
<path fill-rule="evenodd" clip-rule="evenodd" d="M237 284C275.108 284 306 253.108 306 215C306 176.892 275.108 146 237 146C198.892 146 168 176.892 168 215C168 253.108 198.892 284 237 284ZM237.812 259.647C262.021 259.647 281.647 240.021 281.647 215.812C281.647 191.602 262.021 171.976 237.812 171.976C213.602 171.976 193.976 191.602 193.976 215.812C193.976 240.021 213.602 259.647 237.812 259.647Z" fill="#FEFFFF"/>
<path fill-rule="evenodd" clip-rule="evenodd" d="M348.406 364.987C348.962 372.699 342.275 378.642 334.554 378.227L324.11 377.666C324.496 374.33 324.694 370.937 324.694 367.497C324.694 319.172 285.519 279.997 237.194 279.997C188.869 279.997 149.694 319.172 149.694 367.497C149.694 370.737 149.87 373.936 150.214 377.085L139.802 377.574C132.078 377.937 125.431 371.95 126.039 364.242C126.855 353.884 129.116 343.668 132.776 333.895C138.077 319.74 146.2 306.811 156.652 295.894C167.104 284.976 179.667 276.297 193.577 270.384C207.487 264.472 222.454 261.449 237.568 261.5C252.682 261.55 267.628 264.673 281.498 270.679C295.368 276.685 307.873 285.448 318.251 296.435C328.63 307.423 336.666 320.406 341.872 334.596C345.466 344.393 347.659 354.624 348.406 364.987Z" fill="#FEFFFF"/>
<path fill-rule="evenodd" clip-rule="evenodd" d="M0 31C0 13.8789 13.8792 0 31 0H317C334.121 0 348 13.8789 348 31V114H347.991C347.728 121.225 341.788 127 334.5 127C327.212 127 321.272 121.225 321.009 114H321V35C321 30.582 317.418 27 313 27H32C27.5818 27 24 30.582 24 35V347C24 351.418 27.5818 355 32 355H81C88.1797 355 94 360.82 94 368C94 375.18 88.1797 381 81 381H31C13.8792 381 0 367.121 0 350V31Z" fill="#FEFFFF"/>
</svg>
