<!DOCTYPE svg PUBLIC "-//W3C//DTD SVG 1.1//EN" "http://www.w3.org/Graphics/SVG/1.1/DTD/svg11.dtd">
<!-- Uploaded to: SVG Repo, www.svgrepo.com, Transformed by: SVG Repo Mixer Tools -->
<svg fill="#ffffff" width="256px" height="256px" viewBox="0 0 256 256" id="Flat" xmlns="http://www.w3.org/2000/svg" stroke="#ffffff">
<g id="SVGRepo_bgCarrier" stroke-width="0"/>
<g id="SVGRepo_tracerCarrier" stroke-linecap="round" stroke-linejoin="round" stroke="#CCCCCC" stroke-width="0.512"/>
<g id="SVGRepo_iconCarrier"> <path d="M148,80a4.0002,4.0002,0,0,1,4-4h96a4,4,0,0,1,0,8H152A4.0002,4.0002,0,0,1,148,80Zm100,44H152a4,4,0,0,0,0,8h96a4,4,0,0,0,0-8Zm0,48H176a4,4,0,0,0,0,8h72a4,4,0,0,0,0-8ZM145.85742,191.00293a3.9998,3.9998,0,1,1-7.74707,1.99414,60.02112,60.02112,0,0,0-116.2207,0,3.9998,3.9998,0,1,1-7.74707-1.99414,67.92968,67.92968,0,0,1,45.65381-47.93555,44,44,0,1,1,40.40722,0A67.92968,67.92968,0,0,1,145.85742,191.00293ZM80,140a36,36,0,1,0-36-36A36.04061,36.04061,0,0,0,80,140Z"/> </g>
</svg>